<svg viewBox="0 0 284.31 76.77" xmlns="http://www.w3.org/2000/svg" xmlns:xlink="http://www.w3.org/1999/xlink" id="a" overflow="hidden"><style>
.MsftOfcThm_Background1_Fill {
 fill:#FFFFFF; 
}
</style>
<defs></defs><path d="M104.32 27.28C112.11 27.28 116.45 22.9 116.45 15.87 116.45 8.34 112.62 4.46 104.32 4.46L99.94 4.46 99.94 27.28 104.32 27.28ZM96.27 1.06 104.61 1.06C114.27 1.06 120.19 6.64 120.19 15.87 120.19 24.55 113.76 30.68 104.61 30.68L96.27 30.68 96.27 1.06Z" class="b MsftOfcThm_Background1_Fill" stroke="none" stroke-width="1" stroke-linecap="butt" fill="#FFFFFF" fill-opacity="1"/><path d="M123.34 9.58 126.83 9.58 126.83 30.68 123.34 30.68 123.34 9.58ZM123.04 1.75 127.13 1.75 127.13 6 123.04 6 123.04 1.74Z" class="b MsftOfcThm_Background1_Fill" stroke="none" stroke-width="1" stroke-linecap="butt" fill="#FFFFFF" fill-opacity="1"/><path d="M147.04 20.13C147.04 15.11 144.66 12.3 140.66 12.3 136.66 12.3 134.28 15.11 134.28 20.13 134.28 25.15 136.66 27.96 140.66 27.96 144.66 27.96 147.04 25.15 147.04 20.13M130.83 9.58 134.32 9.58 134.32 13.45C135.89 10.26 138.62 9.07 141.21 9.07 146.57 9.07 150.62 13.37 150.62 20.13 150.62 26.89 146.58 31.2 141.21 31.2 138.61 31.2 135.89 30.01 134.32 26.82L134.32 39.2 130.83 39.2 130.83 9.58Z" class="b MsftOfcThm_Background1_Fill" stroke="none" stroke-width="1" stroke-linecap="butt" fill="#FFFFFF" fill-opacity="1"/><path d="M153.37 22.64 153.37 9.58 156.86 9.58 156.86 21.75C156.86 26.18 158.31 28.05 161.97 28.05 165.63 28.05 167.33 25.58 167.33 20.6L167.33 9.58 170.82 9.58 170.82 30.68 167.33 30.68 167.33 27.1C166.1 29.95 163.93 31.19 161.33 31.19 156.22 31.19 153.37 27.96 153.37 22.64" class="b MsftOfcThm_Background1_Fill" stroke="none" stroke-width="1" stroke-linecap="butt" fill="#FFFFFF" fill-opacity="1"/><path d="M176.19 23.71 176.19 12.81 172.49 12.81 172.49 9.58 176.19 9.58 176.19 4 179.68 3.32 179.68 9.58 185.68 9.58 185.68 12.81 179.68 12.81 179.68 23.92C179.68 26.81 180.79 28.01 183.34 28.01 184.11 28.01 185.04 27.8 185.72 27.5L186.57 30.56C185.85 30.9 184.31 31.2 183.17 31.2 178.28 31.2 176.19 28.26 176.19 23.71" class="b MsftOfcThm_Background1_Fill" stroke="none" stroke-width="1" stroke-linecap="butt" fill="#FFFFFF" fill-opacity="1"/><path d="M200.61 21.53 200.61 19.4C199.33 20.17 197.42 20.51 195.84 20.76 191.67 21.36 190.43 22.5 190.43 24.55 190.43 26.76 192.05 28.12 194.77 28.12 198.64 28.12 200.6 25.95 200.6 21.52M186.94 25.05C186.94 21.35 189.62 19.05 194.09 18.2L197.03 17.65C200.05 17.1 200.48 16.42 200.48 15.1 200.48 13.27 198.86 12.16 195.8 12.16 193.33 12.16 191.08 13.48 190.05 16.08L187.2 14.55C189.03 10.89 191.92 9.06 195.8 9.06 200.86 9.06 204.1 11.61 204.1 17.15L204.1 25.28C204.1 27.41 204.19 28.9 205.04 30.69L201.55 30.69C201.12 29.67 200.91 28.31 200.83 27.16 199.38 29.93 196.96 31.2 194.19 31.2 189.81 31.2 186.95 28.48 186.95 25.07" class="b MsftOfcThm_Background1_Fill" stroke="none" stroke-width="1" stroke-linecap="butt" fill="#FFFFFF" fill-opacity="1"/><path d="M206.88 20.13C206.88 13.49 210.97 9.06 217.05 9.06 221.26 9.06 224.63 11.66 225.77 15.83L222.66 17.02C221.85 13.91 219.85 12.3 216.87 12.3 212.78 12.3 210.44 15.02 210.44 20.13 210.44 25.24 212.78 27.96 216.87 27.96 219.85 27.96 221.76 26.43 222.66 23.24L225.77 24.43C224.58 28.64 221.22 31.2 217.05 31.2 210.96 31.2 206.88 26.86 206.88 20.13" class="b MsftOfcThm_Background1_Fill" stroke="none" stroke-width="1" stroke-linecap="butt" fill="#FFFFFF" fill-opacity="1"/><path d="M228.38 9.58 231.87 9.58 231.87 30.68 228.38 30.68 228.38 9.58ZM228.08 1.75 232.17 1.75 232.17 6 228.08 6 228.08 1.74Z" class="b MsftOfcThm_Background1_Fill" stroke="none" stroke-width="1" stroke-linecap="butt" fill="#FFFFFF" fill-opacity="1"/><path d="M241.23 4.68 249.23 0 250.85 3.06 242.34 6.98 241.23 4.68ZM251.36 20.13C251.36 15.11 248.81 12.3 244.81 12.3 240.81 12.3 238.26 15.11 238.26 20.13 238.26 25.15 240.81 27.96 244.81 27.96 248.81 27.96 251.36 25.15 251.36 20.13M234.68 20.13C234.68 13.36 239.32 9.06 244.81 9.06 250.3 9.06 254.94 13.1 254.94 20.13 254.94 27.16 250.3 31.2 244.81 31.2 239.32 31.2 234.68 27.16 234.68 20.13" class="b MsftOfcThm_Background1_Fill" stroke="none" stroke-width="1" stroke-linecap="butt" fill="#FFFFFF" fill-opacity="1"/><path d="M111 65.71C111 60.69 108.66 57.88 104.66 57.88 100.66 57.88 98.32 60.69 98.32 65.71 98.32 70.73 100.66 73.54 104.66 73.54 108.66 73.54 111 70.73 111 65.71M94.74 65.71C94.74 59.37 98.7 54.64 104.06 54.64 106.95 54.64 109.76 56.21 110.95 59.07L110.95 46.64 114.44 46.64 114.44 76.26 110.95 76.26 110.95 72C109.63 75.15 106.99 76.77 104.06 76.77 98.7 76.77 94.74 72.3 94.74 65.7" class="b MsftOfcThm_Background1_Fill" stroke="none" stroke-width="1" stroke-linecap="butt" fill="#FFFFFF" fill-opacity="1"/><path d="M132.56 63.33C132.26 59.71 130.22 57.71 126.86 57.71 123.75 57.71 121.63 59.8 121.16 63.33L132.57 63.33ZM133.03 69.59 136.01 70.99C134.22 75.2 131.07 76.78 127.5 76.78 120.86 76.78 117.46 72.14 117.46 65.71 117.46 59.28 121.12 54.64 127.04 54.64 132.96 54.64 136.32 58.94 136.32 66.13L120.96 66.13C121 70.98 123.26 73.54 127.51 73.54 130.15 73.54 132.02 72.39 133.04 69.58" class="b MsftOfcThm_Background1_Fill" stroke="none" stroke-width="1" stroke-linecap="butt" fill="#FFFFFF" fill-opacity="1"/><path d="M144.56 46.64 148.47 46.64 157.71 70.77 166.94 46.64 170.73 46.64 159.28 76.26 156 76.26 144.56 46.64Z" class="b MsftOfcThm_Background1_Fill" stroke="none" stroke-width="1" stroke-linecap="butt" fill="#FFFFFF" fill-opacity="1"/><path d="M182.41 67.11 182.41 64.98C181.13 65.75 179.22 66.09 177.64 66.34 173.47 66.94 172.24 68.08 172.24 70.13 172.24 72.34 173.86 73.7 176.58 73.7 180.45 73.7 182.41 71.53 182.41 67.1M168.75 70.63C168.75 66.93 171.43 64.63 175.9 63.78L178.84 63.23C181.86 62.68 182.29 62 182.29 60.68 182.29 58.85 180.67 57.74 177.61 57.74 175.14 57.74 172.89 59.06 171.86 61.66L169.01 60.13C170.84 56.47 173.73 54.64 177.61 54.64 182.67 54.64 185.91 57.19 185.91 62.73L185.91 70.86C185.91 72.99 186 74.48 186.85 76.27L183.36 76.27C182.93 75.25 182.72 73.89 182.64 72.74 181.19 75.51 178.77 76.78 176 76.78 171.62 76.78 168.76 74.06 168.76 70.65" class="b MsftOfcThm_Background1_Fill" stroke="none" stroke-width="1" stroke-linecap="butt" fill="#FFFFFF" fill-opacity="1"/><rect x="189.87" y="46.64" width="3.49" height="29.62" class="b MsftOfcThm_Background1_Fill" stroke="none" stroke-width="1" stroke-linecap="butt" fill="#FFFFFF" fill-opacity="1"/><path d="M211.47 63.33C211.17 59.71 209.13 57.71 205.77 57.71 202.66 57.71 200.54 59.8 200.07 63.33L211.48 63.33ZM200.06 48.6 201.68 45.54 209.68 50.22 208.57 52.52 200.06 48.6ZM211.93 69.58 214.91 70.98C213.12 75.19 209.97 76.77 206.4 76.77 199.76 76.77 196.36 72.13 196.36 65.7 196.36 59.27 200.02 54.63 205.94 54.63 211.86 54.63 215.22 58.93 215.22 66.12L199.86 66.12C199.9 70.97 202.16 73.53 206.41 73.53 209.05 73.53 210.92 72.38 211.94 69.57" class="b MsftOfcThm_Background1_Fill" stroke="none" stroke-width="1" stroke-linecap="butt" fill="#FFFFFF" fill-opacity="1"/><path d="M218.07 55.15 221.56 55.15 221.56 58.98C222.92 55.92 225.22 54.64 227.86 54.64 232.97 54.64 235.69 58.64 235.69 63.88L235.69 76.26 232.2 76.26 232.2 64.56C232.2 59.67 230.63 57.79 227.18 57.79 223.73 57.79 221.56 60.05 221.56 65.03L221.56 76.27 218.07 76.27 218.07 55.16Z" class="b MsftOfcThm_Background1_Fill" stroke="none" stroke-width="1" stroke-linecap="butt" fill="#FFFFFF" fill-opacity="1"/><path d="M238.46 65.71C238.46 59.07 242.55 54.64 248.63 54.64 252.84 54.64 256.21 57.24 257.35 61.41L254.24 62.6C253.43 59.49 251.43 57.88 248.45 57.88 244.36 57.88 242.02 60.6 242.02 65.71 242.02 70.82 244.36 73.54 248.45 73.54 251.43 73.54 253.34 72.01 254.24 68.82L257.35 70.01C256.16 74.22 252.8 76.78 248.63 76.78 242.54 76.78 238.46 72.44 238.46 65.71" class="b MsftOfcThm_Background1_Fill" stroke="none" stroke-width="1" stroke-linecap="butt" fill="#FFFFFF" fill-opacity="1"/><path d="M259.96 55.15 263.45 55.15 263.45 76.26 259.96 76.26 259.96 55.15ZM259.66 47.32 263.75 47.32 263.75 51.58 259.66 51.58 259.66 47.32Z" class="b MsftOfcThm_Background1_Fill" stroke="none" stroke-width="1" stroke-linecap="butt" fill="#FFFFFF" fill-opacity="1"/><path d="M279.89 67.11 279.89 64.98C278.61 65.75 276.7 66.09 275.12 66.34 270.95 66.94 269.71 68.08 269.71 70.13 269.71 72.34 271.33 73.7 274.05 73.7 277.92 73.7 279.88 71.53 279.88 67.1M266.22 70.63C266.22 66.93 268.9 64.63 273.37 63.78L276.31 63.23C279.33 62.68 279.76 62 279.76 60.68 279.76 58.85 278.14 57.74 275.08 57.74 272.61 57.74 270.36 59.06 269.33 61.66L266.48 60.13C268.31 56.47 271.2 54.64 275.08 54.64 280.14 54.64 283.38 57.19 283.38 62.73L283.38 70.86C283.38 72.99 283.47 74.48 284.32 76.27L280.83 76.27C280.4 75.25 280.19 73.89 280.11 72.74 278.66 75.51 276.24 76.78 273.47 76.78 269.09 76.78 266.23 74.06 266.23 70.65" class="b MsftOfcThm_Background1_Fill" stroke="none" stroke-width="1" stroke-linecap="butt" fill="#FFFFFF" fill-opacity="1"/><rect x="74.38" y="0.99" width="3.02" height="75.28" class="b MsftOfcThm_Background1_Fill" stroke="none" stroke-width="1" stroke-linecap="butt" fill="#FFFFFF" fill-opacity="1"/><path d="M38.92 26.07C45.34 26.07 49.33 22.57 49.33 16.41 49.33 9.85 45.79 6.75 38.92 6.75L35.24 6.75 35.24 26.07 38.92 26.07ZM29.04 0.99 38.88 0.99C48.94 0.99 55.63 6.88 55.63 16.41 55.63 25.94 48.41 31.83 38.88 31.83L29.04 31.83 29.04 0.99Z" class="b MsftOfcThm_Background1_Fill" stroke="none" stroke-width="1" stroke-linecap="butt" fill="#FFFFFF" fill-opacity="1"/><path d="M26.47 45.44 33.16 45.44 41.31 66.75 49.46 45.44 55.98 45.44 44.06 76.28 38.39 76.28 26.47 45.44Z" class="b MsftOfcThm_Background1_Fill" stroke="none" stroke-width="1" stroke-linecap="butt" fill="#FFFFFF" fill-opacity="1"/><path d="M16.78 66.44C6.59 61.58 0 50.67 0 38.63 0 26.59 6.59 15.68 16.78 10.83L19.63 16.81C11.73 20.58 6.62 29.14 6.62 38.64 6.62 48.14 11.73 56.71 19.63 60.47L16.78 66.45Z" class="b MsftOfcThm_Background1_Fill" stroke="none" stroke-width="1" stroke-linecap="butt" fill="#FFFFFF" fill-opacity="1"/></svg>