<svg viewBox="0 0 495.9 522.47" xmlns="http://www.w3.org/2000/svg" xmlns:xlink="http://www.w3.org/1999/xlink" id="a" overflow="hidden"><defs></defs><g><path d="M330.74 472.34C411.33 442.59 471.46 370.68 484.39 283.37" stroke="#71CFA9" stroke-width="17.71" stroke-linecap="butt" stroke-miterlimit="10" stroke-opacity="1" fill="none"/><path d="M11.51 212.53C28.61 97.32 127.96 8.86 247.95 8.86 367.94 8.86 467.29 97.33 484.39 212.53" stroke="#71CFA9" stroke-width="17.71" stroke-linecap="butt" stroke-miterlimit="10" stroke-opacity="1" fill="none"/><path d="M11.51 283.37C27.28 389.72 113.08 473.23 220.42 485.54" stroke="#71CFA9" stroke-width="17.71" stroke-linecap="butt" stroke-miterlimit="10" stroke-opacity="1" fill="none"/><circle cx="247.95" cy="487.05" r="26.57" stroke="#71CFA9" stroke-width="17.71" stroke-linecap="butt" stroke-miterlimit="10" stroke-opacity="1" fill="none"/></g><g><circle cx="247.95" cy="79.7" r="26.57" stroke="#71CFA9" stroke-width="17.71" stroke-linecap="butt" stroke-miterlimit="10" stroke-opacity="1" fill="none"/><path d="M83.42 212.53C93.87 163.74 125.48 122.83 168.26 99.8" stroke="#71CFA9" stroke-width="17.71" stroke-linecap="butt" stroke-miterlimit="10" stroke-opacity="1" fill="none"/><path d="M83.5 283.37C99.71 359.26 167.18 416.2 247.95 416.2 328.72 416.2 396.19 359.26 412.4 283.37" stroke="#71CFA9" stroke-width="17.71" stroke-linecap="butt" stroke-miterlimit="10" stroke-opacity="1" fill="none"/><path d="M274.34 81.83C343.14 92.63 398.05 145.05 412.39 212.53" stroke="#71CFA9" stroke-width="17.71" stroke-linecap="butt" stroke-miterlimit="10" stroke-opacity="1" fill="none"/></g><g><line x1="442.77" y1="247.95" x2="460.48" y2="247.95" stroke="#71CFA9" stroke-width="17.71" stroke-linecap="butt" stroke-miterlimit="10" stroke-opacity="1" fill="none"/><line x1="478.19" y1="247.95" x2="495.9" y2="247.95" stroke="#71CFA9" stroke-width="17.71" stroke-linecap="butt" stroke-miterlimit="10" stroke-opacity="1" fill="none"/><line x1="407.35" y1="247.95" x2="425.06" y2="247.95" stroke="#71CFA9" stroke-width="17.71" stroke-linecap="butt" stroke-miterlimit="10" stroke-opacity="1" fill="none"/></g><g><line x1="35.42" y1="247.95" x2="53.13" y2="247.95" stroke="#71CFA9" stroke-width="17.71" stroke-linecap="butt" stroke-miterlimit="10" stroke-opacity="1" fill="none"/><line x1="70.84" y1="247.95" x2="88.55" y2="247.95" stroke="#71CFA9" stroke-width="17.71" stroke-linecap="butt" stroke-miterlimit="10" stroke-opacity="1" fill="none"/><line x1="0" y1="247.95" x2="17.71" y2="247.95" stroke="#71CFA9" stroke-width="17.71" stroke-linecap="butt" stroke-miterlimit="10" stroke-opacity="1" fill="none"/></g></svg>